HIERARCHY
ROOT Hips
{
  OFFSET -182.124 87.4526 -173.596
  CHANNELS 6 Xposition Yposition Zposition Zrotation Xrotation Yrotation
  JOINT ToSpine
  {
    OFFSET -2.69724 7.43032 -0.144315
    CHANNELS 3 Zrotation Xrotation Yrotation
    JOINT Spine
    {
      OFFSET -0.0310711 10.7595 1.96963
      CHANNELS 3 Zrotation Xrotation Yrotation
      JOINT Spine1
      {
        OFFSET 13.1342 3.43533 0.764692
        CHANNELS 3 Zrotation Xrotation Yrotation
        JOINT Neck
        {
          OFFSET 29.8703 7.82586 -0.130764
          CHANNELS 3 Zrotation Xrotation Yrotation
          JOINT Head
          {
            OFFSET 9.52751 0.295786 -0.907742
            CHANNELS 3 Zrotation Xrotation Yrotation
            End Site
            {
              OFFSET 16.4037 0.713936 2.7358
            }
          }
        }
        JOINT LeftShoulder
        {
          OFFSET 27.5574 4.95586 2.47156
          CHANNELS 3 Zrotation Xrotation Yrotation
          JOINT LeftArm
          {
            OFFSET 1.20734 -0.998971 20.1238
            CHANNELS 3 Zrotation Xrotation Yrotation
            JOINT LeftForeArm
            {
              OFFSET 26.8049 -0.0536703 -0.155908
              CHANNELS 3 Zrotation Xrotation Yrotation
              JOINT LeftHand
              {
                OFFSET 26.6817 0 0.320147
                CHANNELS 3 Zrotation Xrotation Yrotation
                End Site
                {
                  OFFSET 18.6119 0 0.382219
                }
              }
            }
          }
        }
        JOINT RightShoulder
        {
          OFFSET 27.5927 4.71444 -2.65209
          CHANNELS 3 Zrotation Xrotation Yrotation
          JOINT RightArm
          {
            OFFSET 2.83739 -1.17114 -18.7564
            CHANNELS 3 Zrotation Xrotation Yrotation
            JOINT RightForeArm
            {
              OFFSET 28.839 -0.0548439 1.22491
              CHANNELS 3 Zrotation Xrotation Yrotation
              JOINT RightHand
              {
                OFFSET 26.5114 0 -0.101894
                CHANNELS 3 Zrotation Xrotation Yrotation
                End Site
                {
                  OFFSET 18.2168 0 0
                }
              }
            }
          }
        }
      }
    }
  }
  JOINT LeftUpLeg
  {
    OFFSET -4.76168 -1.9167 -10.2353
    CHANNELS 3 Zrotation Xrotation Yrotation
    JOINT LeftLeg
    {
      OFFSET 2.55951 -42.0585 -8.02213
      CHANNELS 3 Zrotation Xrotation Yrotation
      JOINT LeftFoot
      {
        OFFSET 3.16357 -42.5282 -3.95426
        CHANNELS 3 Zrotation Xrotation Yrotation
        JOINT LeftToeBase
        {
          OFFSET 0.346054 -6.02161 12.8035
          CHANNELS 3 Zrotation Xrotation Yrotation
          End Site
          {
            OFFSET 0.134235 -1.35082 5.13018
          }
        }
      }
    }
  }
  JOINT RightUpLeg
  {
    OFFSET -4.94151 -1.41743 10.6446
    CHANNELS 3 Zrotation Xrotation Yrotation
    JOINT RightLeg
    {
      OFFSET -2.56294 -42.0364 -7.94377
      CHANNELS 3 Zrotation Xrotation Yrotation
      JOINT RightFoot
      {
        OFFSET -3.0952 -42.555 -4.02241
        CHANNELS 3 Zrotation Xrotation Yrotation
        JOINT RightToeBase
        {
          OFFSET -0.0828122 -6.13587 12.8035
          CHANNELS 3 Zrotation Xrotation Yrotation
          End Site
          {
            OFFSET -0.131328 -1.35082 5.13018
          }
        }
      }
    }
  }
}
MOTION
Frames:	15
Frame Time:	0.0333333
18.0686 90.5084 4.60802 54.6569 -49.6978 -28.5928 -70.1915 0 88.8779 107.851 77.596 -16.6762 -2.51038 29.4565 -2.07346 -158.383 22.1903 175.01 -155.9 61.3573 -175.699 1.18776 -9.50606 -31.9514 -102.108 43.8165 -38.9933 7.76317 42.1277 -18.1939 0.420957 0.000575449 0.35866 -1.62788 6.71814 38.757 -76.0789 -31.7514 114.896 22.36 -9.6858 67.6458 0.58676 0.000331121 0.0646653 -21.5104 3.27987 96.1657 -1.95303 30.8152 -4.66657 -0.919025 -2.53604 -0.190266 6.32468 -14.4787 11.1276 -72.1525 -0.0167987 87.4869 -0.485982 34.9688 18.5837 -2.97093 -12.3907 1.17877 2.48454 -21.6539 -6.93113 
23.2944 90.0894 8.55302 55.1643 -47.3424 -29.8995 -70.1915 0 88.8779 94.6902 77.9383 -7.0945 -2.09139 28.8719 -1.08007 -158.986 22.1811 173.771 -154.894 61.1504 -177.808 1.17756 -9.54948 -31.7772 -101.964 43.1527 -38.6709 7.26915 42.2552 -17.4947 0.420957 0.000575449 0.35866 -1.64342 6.37642 40.3614 -75.7369 -30.3834 110.937 20.1075 -8.9002 66.9941 0.58676 0.000331121 0.0646653 -19.8681 1.15015 99.3679 -2.50594 38.8696 -6.71201 -1.33431 -0.515735 0.0357654 5.79414 -13.7045 12.1032 -72.1423 -2.03596 93.5016 2.61883 39.0695 8.07431 -3.66826 -1.27911 0.680085 5.21616 -32.9357 6.67606 
28.1302 90.2977 12.4435 58.1401 -45.415 -28.2886 -70.1915 0 88.8779 94.0571 77.678 -8.94573 -1.69337 28.4778 -0.743063 -158.597 22.5129 172.997 -154.46 61.4387 -178.212 0.905948 -10.8402 -31.7985 -100.975 42.951 -40.4122 7.55832 42.1007 -18.1347 0.420957 0.000575449 0.35866 -1.74293 6.50811 41.3178 -77.2928 -31.1529 104.468 20.4452 -9.89582 65.159 0.58676 0.000331121 0.0646653 -21.7635 -0.268275 102.787 -3.62715 44.5296 -11.8286 3.28211 -0.519843 -0.537734 4.61695 -12 13.5949 -70.6854 -3.69297 92.3201 3.35989 47.0711 7.32286 -0.115875 9.63098 -0.564902 4.6865 -29.5926 8.24033 
32.767 91.2191 15.9217 58.9027 -44.1116 -27.3875 -70.1915 0 88.8779 95.0043 76.9245 -10.4013 -2.6881 27.7095 -0.159918 -157.807 22.2793 172.836 -153.731 61.1247 -178.707 0.79544 -11.3689 -31.6968 -99.973 44.2004 -42.6317 8.18377 40.2739 -19.8802 0.420957 0.000575449 0.35866 -1.74396 6.37572 41.9057 -74.813 -31.4573 100.708 18.095 -10.1656 61.5609 0.58676 0.000331121 0.0646653 -24.7224 -1.89003 103.089 -3.51059 45.8098 -9.19677 3.19941 -6.697 -0.84207 0.788426 -4.19299 7.24176 -65.2535 -3.25594 93.2986 5.14485 57.6757 5.82303 5.0728 17.3523 -2.59079 2.24011 -19.8269 -15.874 
37.3078 92.2397 19.0507 60.3919 -42.7037 -26.1369 -70.1915 0 88.8779 94.5264 75.8179 -10.9063 -2.43926 26.1748 0.837374 -158.092 22.0395 173.872 -154.455 60.9377 -178.395 0.706121 -11.7624 -32.1381 -96.8396 47.1095 -47.9598 9.01666 36.8816 -22.2807 0.420957 0.000575449 0.35866 -1.68123 6.05278 42.3904 -73.0554 -32.2931 97.8724 17.3522 -11.8324 56.6832 0.58676 0.000331121 0.0646653 -28.5339 -4.1002 103.119 -3.72826 45.809 -11.0965 5.41566 -6.97913 -1.00652 0.322228 -4.40847 10.8368 -58.7072 -4.15447 91.9989 5.87042 67.0036 -5.912 -1.39407 16.1091 -0.706682 1.64819 -13.0437 -1.22448 
41.6227 93.6792 22.4751 62.1914 -40.5511 -23.8317 -70.1915 0 88.8779 91.9052 74.6453 -8.62655 -1.4179 24.629 1.32515 -157.168 21.9754 173.055 -153.544 60.7795 -179.001 0.509006 -12.6862 -32.0702 -88.2245 50.9487 -57.9813 9.07649 27.678 -25.0863 0.420957 0.000575449 0.35866 -1.64801 5.61369 44.014 -71.1846 -31.9913 94.1858 16.1085 -13.2399 51.5643 0.58676 0.000331121 0.0646653 -33.7303 -6.22603 101.857 -3.33107 43.1053 -10.4389 5.56803 -7.878 -1.04443 0.10113 -3.34732 8.57262 -52.6522 -3.66098 90.7178 7.84867 72.4711 -10.4026 -5.7887 13.5835 0.533154 1.96591 -14.1366 -6.20496 
45.7242 95.0727 25.7789 62.6316 -38.8179 -21.6602 -70.1915 0 88.8779 89.3198 73.4218 -4.94766 -0.370145 22.9924 1.83215 -156.594 21.7601 173.713 -153.143 60.504 -179.276 0.540599 -12.5539 -31.9256 -76.1551 53.44 -71.7308 9.11529 17.8774 -28.5263 0.420957 0.000575449 0.35866 -1.60239 5.39289 44.4076 -68.6364 -32.831 91.4759 13.4182 -13.6031 45.4308 0.58676 0.000331121 0.0646653 -38.0714 -6.8128 99.6616 -3.34697 40.9344 -12.761 4.23433 -7.61367 -0.953534 1.00132 -5.76217 11.5915 -45.7936 -2.02085 89.5619 7.82984 74.3706 -13.9835 -8.90738 10.1579 1.2983 1.90986 -14.5586 -3.72351 
50.0645 96.0883 28.8614 63.8008 -36.7497 -19.9626 -70.1915 0 88.8779 89.783 72.043 -4.58633 0.0393183 21.5359 1.47576 -155.408 21.5941 173.88 -152.663 60.3054 -179.212 0.401743 -13.159 -32.273 -77.4177 51.7756 -73.828 9.87975 14.3195 -34.7814 0.420957 0.000575449 0.35866 -1.61659 5.39754 44.6312 -66.9486 -34.4289 88.3233 9.93808 -12.503 39.0789 0.58676 0.000331121 0.0646653 -43.0701 -8.42668 97.3364 -3.10777 38.2781 -12.7092 3.72627 -8.0998 -0.944813 1.42282 -6.19197 10.451 -40.1023 -1.75219 89.0198 6.96308 73.5262 -13.8988 -10.9089 6.1935 1.66476 2.17829 -17.4893 -2.87176 
54.1257 96.8637 32.2797 64.6593 -34.4257 -18.6244 -70.1915 0 88.8779 87.7949 70.8058 -3.1144 0.516399 20.02 1.92074 -154.018 21.1923 172.928 -151.397 59.7857 -179.848 0.409066 -13.1951 -31.7319 -77.2726 49.9789 -78.0885 9.72061 11.6914 -39.8581 0.420957 0.000575449 0.35866 -1.54849 4.98335 45.7936 -66.1012 -35.3745 84.8544 8.78009 -13.7072 33.208 0.58676 0.000331121 0.0646653 -47.8749 -9.29022 95.5126 -2.74703 35.541 -13.2455 2.73479 -8.95949 -0.93543 1.53176 -6.09977 9.32262 -35.3043 -1.66138 88.4041 5.14801 68.8903 -10.6488 -9.0368 1.70228 1.31969 2.20961 -17.6119 -5.67032 
58.2368 97.076 35.702 64.8595 -32.1416 -17.8765 -70.1915 0 88.8779 84.7931 69.6957 -0.775388 0.728625 18.606 2.74485 -152.383 21.3573 173.033 -150.966 60.0031 -179.153 0.361016 -13.4364 -31.6286 -77.6727 47.6132 -81.893 11.1529 11.3132 -44.7534 0.420957 0.000575449 0.35866 -1.55916 4.86941 46.7032 -65.5806 -36.4345 80.9536 6.79961 -13.2467 27.7804 0.58676 0.000331121 0.0646653 -51.9853 -9.30394 96.0916 -2.12019 33.3408 -15.9475 2.56794 -8.28944 -0.888638 3.10301 -8.9254 9.78225 -31.4015 -1.91064 87.8191 3.14954 60.8198 -7.62816 -9.75334 -0.54978 1.40742 2.22376 -17.511 -8.5487 
62.2962 96.7832 39.278 65.1215 -29.8178 -17.7743 -70.1915 0 88.8779 80.3191 68.7723 2.2536 1.61991 17.5954 3.13653 -151.197 21.463 172.057 -149.415 60.0288 -179.684 0.223409 -14.1492 -31.2713 -78.3187 44.7098 -85.8127 12.3607 10.5843 -49.6096 0.420957 0.000575449 0.35866 -1.53759 4.70929 47.3266 -73.2704 -35.6773 72.7062 4.97024 -18.7059 24.2959 0.58676 0.000331121 0.0646653 -55.6821 -9.19478 97.8228 -1.64199 32.1426 -18.6069 2.38189 -9.64616 -0.958257 3.20297 -8.87075 8.59869 -28.9989 -3.01347 87.3216 1.99411 49.9428 -3.9516 -7.76405 -3.52767 1.1893 2.21783 -16.3663 -11.4006 
66.5261 95.8688 43.0295 64.9374 -28.0169 -18.2782 -70.1915 0 88.8779 73.0642 67.7641 7.89694 3.6404 16.9385 3.13804 -151.257 21.1182 170.746 -148.112 59.5391 179.203 0.195085 -14.5111 -30.0977 -79.8616 42.6146 -89.4831 13.6477 10.3117 -53.1491 0.420957 0.000575449 0.35866 -1.51924 4.54849 48.0558 -84.8847 -31.7387 63.143 3.70665 -28.7974 21.402 0.58676 0.000331121 0.0646653 -59.2035 -9.19252 98.8197 -1.43836 31.2442 -18.0639 3.13459 -12.3033 -1.13178 3.20327 -7.81817 3.61267 -27.5211 -4.30566 86.4697 1.09107 36.7462 -2.60301 -9.976 -3.11311 1.41246 2.57738 -21.6936 -4.05397 
70.7248 94.8628 46.5782 64.7458 -26.4186 -17.4576 -70.1915 0 88.8779 70.7342 66.5079 9.65875 4.60527 15.5605 4.36148 -152.304 20.8803 171.3 -148.88 59.3344 179.643 0.262092 -14.3212 -29.328 -82.6297 41.0742 -91.5821 14.9018 9.80799 -56.8938 0.420957 0.000575449 0.35866 -1.50183 4.64535 47.0488 -88.7763 -30.1474 57.8325 3.78701 -33.6007 20.5024 0.58676 0.000331121 0.0646653 -62.4985 -7.79181 99.2133 -1.19138 31.2118 -23.2839 3.1475 -13.0493 -1.17159 4.17793 -10.4222 7.64193 -27.7754 -3.98595 85.9457 0.846506 21.5296 4.62823 -3.79047 -2.85964 0.764916 2.13182 -23.8526 -16.6275 
74.9116 93.5952 50.2723 65.1005 -24.6821 -17.0793 -70.1915 0 88.8779 69.6063 65.6225 8.88493 4.89722 14.2329 5.96125 -152.743 20.6183 170.588 -148.207 58.9064 178.466 0.299083 -14.2765 -28.5742 -84.5015 39.327 -93.7268 14.99 8.87775 -59.5498 0.420957 0.000575449 0.35866 -1.39286 4.32295 47.042 -89.9964 -28.5227 54.6073 3.46237 -34.9587 19.9368 0.58676 0.000331121 0.0646653 -65.707 -6.81587 99.0364 -0.925658 31.8824 -26.0277 3.81681 -13.2642 -1.191 5.43891 -12.5713 6.959 -26.7338 -4.72209 86.1145 1.29647 13.4701 6.3447 -6.93338 -1.42693 1.07037 1.81631 -26.6776 -19.7384 
79.1615 92.0838 54.2003 66.3389 -23.7375 -16.4216 -70.1915 0 88.8779 70.6401 65.1347 6.25635 5.47047 13.1956 6.84331 -152.619 20.5226 169.382 -147.204 58.6987 177.677 0.322142 -14.335 -27.69 -86.2157 38.0337 -94.5291 15.1344 8.17775 -61.755 0.420957 0.000575449 0.35866 -1.36478 4.11866 47.9376 -91.4078 -26.0528 52.0789 4.0017 -37.672 19.7446 0.58676 0.000331121 0.0646653 -69.6218 -5.58358 98.0076 -1.13787 33.1785 -26.2897 3.86418 -12.6763 -1.16413 6.74285 -14.6603 3.92409 -25.3955 -4.93539 85.9824 1.35262 14.1411 5.97454 -2.18601 -5.63285 0.758813 1.91274 -22.3779 -23.3948 
